<?xml version="1.0" encoding="utf-8"?>
<!-- Generator: Adobe Illustrator 15.0.2, SVG Export Plug-In . SVG Version: 6.00 Build 0)  -->
<!DOCTYPE svg PUBLIC "-//W3C//DTD SVG 1.1//EN" "http://www.w3.org/Graphics/SVG/1.1/DTD/svg11.dtd">
<svg version="1.1" id="Слой_1" xmlns="http://www.w3.org/2000/svg" xmlns:xlink="http://www.w3.org/1999/xlink" x="0px" y="0px"
	 width="550.356px" height="549.117px" viewBox="0 0 550.356 549.117" enable-background="new 0 0 550.356 549.117"
	 xml:space="preserve">
<g>
	<g>
		<polygon fill="#CC6D92" points="371.359,549.117 420.956,530.353 418.04,548.462 		"/>
		<polygon fill="#C1859D" points="371.359,549.117 383.326,515.154 420.956,530.353 		"/>
		<polygon fill="#DB93B0" points="371.359,549.117 345.431,512.167 383.326,515.154 		"/>
		<polygon fill="#D3A9BC" points="345.431,512.167 323.211,539.962 371.359,549.117 		"/>
		<polygon fill="#C1859D" points="345.431,512.167 329.786,508.894 323.211,539.962 		"/>
		<polygon fill="#DB93B0" points="345.431,512.167 357.224,483.386 329.786,508.894 		"/>
		<polygon fill="#D3A9BC" points="357.224,483.386 329.892,488.525 329.786,508.894 		"/>
		<polygon fill="#D3A9BC" points="357.224,483.386 366.284,495.019 345.431,512.167 		"/>
		<polygon fill="#E5BDD1" points="366.284,495.019 383.326,515.154 345.431,512.167 		"/>
		<polygon fill="#E5BDD1" points="329.892,488.525 355.858,431.49 357.224,483.386 		"/>
		<polygon fill="#EFB1B1" points="355.858,431.49 313.069,407.273 329.892,488.525 		"/>
		<polygon fill="#E8C0BF" points="313.069,407.273 357.224,371.591 355.858,431.49 		"/>
		<polygon fill="#F79F9F" points="357.224,371.591 320.781,359.74 313.069,407.273 		"/>
		<polygon fill="#F79F9F" points="320.781,359.74 346.497,319.558 309.617,285.419 		"/>
		<polygon fill="#EFB1B1" points="320.781,359.74 334.464,338.359 357.224,371.591 		"/>
		<polygon fill="#EAA8A4" points="357.224,371.591 364.974,349.304 334.464,338.359 		"/>
		<polygon fill="#EFB1B1" points="334.464,338.359 346.497,319.558 364.974,349.304 		"/>
		<polygon fill="#D39590" points="309.617,285.419 276.04,334.972 320.781,359.74 		"/>
		<polygon fill="#D88277" points="276.04,334.972 263.798,247.19 309.617,285.419 		"/>
		<polygon fill="#D89032" points="263.798,247.19 216.894,296.738 276.04,334.972 		"/>
		<polygon fill="#DB9D5A" points="263.798,247.19 199.713,272.154 216.894,296.738 		"/>
		<polygon fill="#976DA0" points="263.798,247.19 195.969,235.853 199.713,272.154 		"/>
		<polygon fill="#944EA0" points="195.969,235.853 188.236,257.633 199.713,272.154 		"/>
		<polygon fill="#EFAC6A" points="195.969,235.853 228.633,179 179.919,227.762 		"/>
		<polygon fill="#944EA0" points="195.969,235.853 263.798,247.19 211.454,208.9 		"/>
		<polygon fill="#CC6D92" points="22.825,333.083 0,421.632 0,375.277 		"/>
		<polygon fill="#C1859D" points="22.825,333.083 47.224,381.466 10.743,379.957 		"/>
		<polygon fill="#D3A9BC" points="47.225,381.466 20.403,402.707 10.744,379.957 		"/>
		<polygon fill="#E5BDD1" points="20.402,402.707 12.658,419.005 10.743,379.957 		"/>
		<polygon fill="#D3A9BC" points="10.743,379.957 0,421.632 12.658,419.005 		"/>
		<polygon fill="#D3A9BC" points="22.825,333.083 40.245,336.634 47.224,381.466 		"/>
		<polygon fill="#E5BDD1" points="40.245,336.634 56.981,347.24 47.224,381.466 		"/>
		<polygon fill="#FFDBF3" points="56.981,347.24 72.194,378.568 47.225,381.466 		"/>
		<polygon fill="#E5BDD1" points="56.981,347.24 71.946,346.949 72.194,378.568 		"/>
		<polygon fill="#E8C0BF" points="71.946,346.949 132.083,346.742 72.194,378.568 		"/>
		<polygon fill="#EAA8A4" points="132.083,346.742 105.147,378.568 72.194,378.568 		"/>
		<polygon fill="#E8C0BF" points="132.083,346.742 186.147,399.501 105.147,378.568 		"/>
		<polygon fill="#EAA8A4" points="132.083,346.742 185.087,359.05 186.147,399.501 		"/>
		<polygon fill="#D39590" points="185.087,359.05 202.4,400.96 186.148,399.501 		"/>
		<polygon fill="#DB9D5A" points="185.087,359.05 222.616,386.746 202.4,400.96 		"/>
		<polygon fill="#BF8F56" points="185.087,359.05 263.798,327.06 222.616,386.746 		"/>
		<polygon fill="#D88136" points="263.798,327.06 216.894,296.738 185.087,359.05 		"/>
		<polygon fill="#BF8F56" points="206.999,282.58 185.087,359.05 216.894,296.738 		"/>
		<polygon fill="#DB9D5A" points="188.235,257.634 163.892,281.517 159.055,261.976 		"/>
		<polygon fill="#EFAC6A" points="188.235,257.634 168.269,246.401 159.055,261.976 		"/>
		<polygon fill="#EFAC6A" points="188.235,257.634 188.235,266.081 173.646,282.58 		"/>
		<polygon fill="#D89032" points="188.235,257.634 173.646,282.58 163.892,281.517 		"/>
		<polygon fill="#DB9D5A" points="168.269,246.4 161.79,249.132 159.056,261.976 		"/>
		<polygon fill="#DB9D5A" points="389.197,257.634 417.999,243.84 411.239,234.382 		"/>
		<polygon fill="#EFBB8E" points="389.197,257.634 420.873,261.399 405.421,249.863 		"/>
		<polygon fill="#EFAC6A" points="389.197,257.634 383.436,272.236 420.873,261.399 		"/>
		<polygon fill="#DB9D5A" points="399.755,290.111 383.436,272.236 403.597,266.4 		"/>
		<polygon fill="#BF8F56" points="403.597,266.399 417.999,282.58 399.755,290.111 		"/>
		<polygon fill="#EFAC6A" points="389.197,257.634 401.329,224.295 411.239,234.382 		"/>
		<polygon fill="#EFBB8E" points="401.329,224.295 373.639,230.632 389.197,257.634 		"/>
		<polygon fill="#F7F0D2" points="417.999,243.84 420.873,261.399 405.421,249.863 		"/>
		<polygon fill="#F7F0D2" points="179.919,227.762 188.235,257.634 195.969,235.853 		"/>
		<polygon fill="#F7FFEF" points="188.235,257.634 168.269,246.401 179.919,227.762 		"/>
		<polygon fill="#D5B92A" points="420.873,261.398 417.999,282.58 403.597,266.399 		"/>
		<path fill="#D5B92A" d="M544.362,218.505c-4.24-4.438-10.447-6.784-17.95-6.784c-13.651,0-30.826,7.717-46.201,20.494
			c-1.669,1.189-27.551,19.545-42.876,25.734c-9.839,3.976-12.406,2.58-12.43,2.564c0.056,0.036-0.757-0.542-6.954,1.908
			c-0.778,1.27,0.048,13.25,0.048,20.159c0,0,0.303-4.324,4.246-7.746c0.576-0.5,5.979-4.578,12.348-0.342
			c5.132,3.412,9.294,14.229,11.412,21.238c0.778,4.443,2.604,8.328,5.557,11.42c4.238,4.438,10.446,6.783,17.949,6.783h0.002
			c15.521,0,35.602-9.971,52.405-26.023C547.937,263.058,557.796,232.572,544.362,218.505 M438.715,268.296
			c-1.093-0.726-2.186-1.303-3.266-1.755c1.469-0.469,3.017-1.024,4.672-1.692c5.62-2.271,12.413-5.971,18.985-9.903
			c-5.707,8.12-9.725,16.307-11.829,23.913C444.979,274.531,442.126,270.565,438.715,268.296 M516.779,282.529
			c-15.475,14.783-33.588,23.965-47.269,23.965c-5.499,0-9.728-1.51-12.57-4.484c-1.114-1.168-1.973-2.541-2.612-4.068
			c-0.175-0.723-0.547-2.182-1.112-4.084c-1.934-13.049,8.12-33.723,25.926-50.732c15.475-14.781,33.588-23.964,47.271-23.964
			c5.498,0,9.728,1.508,12.57,4.484C549.182,234.325,539.015,261.291,516.779,282.529"/>
		<polygon fill="#D5B92A" points="179.919,227.762 210.874,158.3 228.633,179 		"/>
		<polygon fill="#F2D144" points="228.633,179.001 256.14,117.313 210.874,158.3 		"/>
		<polygon fill="#DBC775" points="256.14,117.313 280,158.299 228.633,179 		"/>
		<polygon fill="#DBC775" points="401.329,224.295 389.197,157.115 373.639,230.632 		"/>
		<polygon fill="#F9DF6E" points="389.197,157.115 421.645,136.842 401.329,224.295 		"/>
		<polygon fill="#F9DF6E" points="344.691,166.686 329.069,138.456 361.782,110.203 		"/>
		<polygon fill="#E5D693" points="361.782,110.202 373.639,113.345 344.691,166.685 		"/>
		<polygon fill="#DBC775" points="361.782,110.202 347.269,95.143 329.069,138.455 		"/>
		<polygon fill="#D5B92A" points="347.269,95.144 329.747,91.887 329.069,138.456 		"/>
		<polygon fill="#B2A157" points="347.269,95.144 338.483,75.098 329.747,91.887 		"/>
		<polygon fill="#F9DF6E" points="338.483,75.098 370.887,55.583 347.269,95.144 		"/>
		<polygon fill="#F2D144" points="359.968,73.874 397.718,65.913 370.887,55.584 		"/>
		<polygon fill="#F2D144" points="359.968,73.874 361.782,110.202 347.269,95.144 		"/>
		<polygon fill="#F9DF6E" points="359.968,73.874 373.639,113.345 361.782,110.202 		"/>
		<polygon fill="#E2DABA" points="359.968,73.874 387.295,96.048 373.639,113.345 		"/>
		<polygon fill="#E5D693" points="359.968,73.874 397.718,65.913 387.295,96.048 		"/>
		<polygon fill="#E0F2AF" points="370.887,55.584 395.767,21.406 403.167,44.089 		"/>
		<polygon fill="#CEE0A4" points="403.167,44.089 397.718,65.913 370.887,55.584 		"/>
		<polygon fill="#98DD3E" points="370.887,55.584 351.772,20.065 331.373,48.379 		"/>
		<polygon fill="#9DC165" points="370.887,55.584 338.483,75.098 331.373,48.379 		"/>
		<polygon fill="#85A665" points="331.373,48.379 326.517,52.439 338.483,75.098 		"/>
		<polygon fill="#BDE577" points="351.772,20.065 395.767,21.406 370.887,55.584 		"/>
		<polygon fill="#98DD3E" points="351.772,20.065 359.165,0 395.767,21.406 		"/>
		<polygon fill="#9DC165" points="359.165,0 386.663,3.457 395.767,21.406 		"/>
		<polygon fill="#9DC165" points="351.772,20.065 329.927,33.279 331.373,48.378 		"/>
		<polygon fill="#85A665" points="351.772,20.065 338.736,13.05 329.927,33.279 		"/>
		<polygon fill="#858C65" points="351.772,20.065 338.736,13.05 359.165,0 		"/>
		<polygon fill="#F7FFEF" points="387.295,96.048 408.5,104.238 373.639,113.345 		"/>
		<polygon fill="#F7FFEF" points="373.639,113.345 389.197,157.116 344.691,166.686 		"/>
		<polygon fill="#F7FFEF" points="329.747,91.887 314.208,81.32 289.446,106.925 		"/>
		<polygon fill="#F2F2F2" points="329.747,91.887 329.069,138.455 289.446,106.925 		"/>
		<polygon fill="#F2F2F2" points="373.639,113.345 408.5,104.239 389.197,157.116 		"/>
		<polygon fill="#F2F2F2" points="344.691,166.686 364.316,199.042 389.197,157.116 		"/>
		<polygon fill="#F2F2F2" points="329.069,138.455 304.479,186.615 344.691,166.685 		"/>
		<polygon fill="#F7F0D2" points="329.069,138.455 297.036,137.65 289.446,106.925 		"/>
		<polygon fill="#F7F0D2" points="389.197,157.115 408.5,104.238 421.645,136.842 		"/>
		<polygon fill="#F7F0D2" points="344.691,166.686 364.316,199.042 304.479,186.616 		"/>
		<polygon fill="#F7F0D2" points="289.446,106.925 274.702,98.925 314.208,81.32 		"/>
		<polygon fill="#F7F0D2" points="228.633,179.001 263.798,247.19 211.454,208.9 		"/>
		<polygon fill="#F7F0D2" points="263.798,247.19 307.497,244.143 291.265,270.107 		"/>
		<polygon fill="#E8E5D9" points="304.479,186.615 324.585,222.771 364.316,199.042 		"/>
		<polygon fill="#F2F2F2" points="289.446,106.925 256.139,117.313 274.702,98.925 		"/>
		<polygon fill="#E8E5D9" points="289.446,106.925 280,158.3 256.139,117.313 		"/>
		<polygon fill="#F2F2F2" points="297.036,137.65 280,158.299 289.446,106.924 		"/>
		<polygon fill="#F7FFEF" points="297.036,137.65 304.479,186.615 329.069,138.456 		"/>
		<polygon fill="#E8E5D9" points="280,158.3 304.479,186.615 297.036,137.651 		"/>
		<polygon fill="#E8E5D9" points="304.479,186.615 307.497,244.142 228.632,179.001 		"/>
		<polygon fill="#E2DABA" points="304.479,186.615 280,158.3 228.632,179.001 		"/>
		<polygon fill="#E2DABA" points="304.479,186.615 307.497,244.142 324.585,222.771 		"/>
		<polygon fill="#E2DABA" points="228.633,179.001 263.798,247.19 307.497,244.143 		"/>
		<polygon fill="#728065" points="329.927,33.279 331.373,48.379 299.062,75.386 		"/>
		<polygon fill="#858C65" points="329.927,33.279 299.94,28.615 316.427,51.697 		"/>
		<polygon fill="#858C65" points="316.427,51.697 293.532,61.186 299.062,75.386 		"/>
		<polygon fill="#9DC165" points="299.94,28.615 338.736,13.051 329.927,33.279 		"/>
		<polygon fill="#85A665" points="299.94,28.615 316.427,51.697 293.533,61.185 		"/>
		<polygon fill="#85A665" points="299.062,75.387 276.667,63.542 293.533,61.186 		"/>
		<polygon fill="#98DD3E" points="299.94,28.615 317.989,9.094 338.736,13.051 		"/>
		<path fill="#D5B92A" d="M534.397,132.612c0,9.768-7.919,17.685-17.687,17.685c-9.765,0-17.685-7.917-17.685-17.685
			s7.92-17.685,17.685-17.685C526.479,114.927,534.397,122.844,534.397,132.612"/>
	</g>
</g>
</svg>
